<svg xmlns="http://www.w3.org/2000/svg" xmlns:xlink="http://www.w3.org/1999/xlink" width="100.0" height="100.0" viewBox="-0.66 -0.66 4.32 3.3200000000000003" preserveAspectRatio="xMinYMin meet"><g transform="matrix(1,0,0,-1,0,2.0)"><path fill-rule="evenodd" fill="#66cc99" stroke="#555555" stroke-width="0.0864" opacity="0.6" d="M 1.4354270158816935,-0.43541050359831335 L 1.2926354830241924,-0.47117792060484565 L 1.147025710494341,-0.4927770900082953 L 1.0,-0.5 L 0.852974289505659,-0.4927770900082953 L 0.7073645169758077,-0.47117792060484565 L 0.5645729841183067,-0.43541050359831335 L 0.42597485145236536,-0.38581929876693 L 0.29290489476100345,-0.32288189652253263 L 0.16664465047059707,-0.24720441845381802 L 0.04841007375453188,-0.15951568004410577 L -0.06066017177982119,-0.060660171779821415 L -0.15951568004410555,0.04841007375453177 L -0.24720441845381802,0.16664465047059673 L -0.3228818965225324,0.29290489476100334 L -0.38581929876693,0.42597485145236513 L -0.43541050359831335,0.5645729841183065 L -0.47117792060484565,0.7073645169758072 L -0.4927770900082953,0.8529742895056588 L -0.5,0.9999999999999998 L -0.4927770900082953,1.1470257104943409 L -0.47117792060484565,1.2926354830241924 L -0.43541050359831335,1.435427015881693 L -0.3858192987669302,1.5740251485476344 L -0.32288189652253263,1.7070951052389964 L -0.24720441845381824,1.8333553495294028 L -0.15951568004410577,1.951589926245468 L -0.060660171779821415,2.060660171779821 L 0.0484100737545311,2.159515680044105 L 0.16664465047059673,2.247204418453818 L 0.29290489476100323,2.3228818965225324 L 0.42597485145236447,2.38581929876693 L 0.5645729841183064,2.4354105035983133 L 0.7073645169758069,2.4711779206048456 L 0.8529742895056593,2.4927770900082953 L 0.9999999999999998,2.5 L 1.1470257104943402,2.4927770900082953 L 1.2926354830241924,2.4711779206048456 L 1.435427015881693,2.4354105035983133 L 1.4999999999999998,2.412305920438431 L 1.5645729841183065,2.4354105035983133 L 1.707364516975807,2.4711779206048456 L 1.8529742895056593,2.4927770900082953 L 1.9999999999999998,2.5 L 2.14702571049434,2.4927770900082953 L 2.2926354830241924,2.4711779206048456 L 2.435427015881693,2.4354105035983133 L 2.574025148547635,2.38581929876693 L 2.7070951052389964,2.3228818965225324 L 2.833355349529403,2.2472044184538182 L 2.951589926245468,2.1595156800441053 L 3.060660171779821,2.0606601717798214 L 3.159515680044105,1.951589926245469 L 3.247204418453818,1.8333553495294033 L 3.3228818965225324,1.7070951052389969 L 3.38581929876693,1.5740251485476355 L 3.4354105035983133,1.4354270158816937 L 3.4711779206048456,1.292635483024193 L 3.4927770900082953,1.1470257104943409 L 3.5,1.0 L 3.4927770900082953,0.8529742895056591 L 3.4711779206048456,0.7073645169758076 L 3.4354105035983133,0.5645729841183065 L 3.38581929876693,0.42597485145236536 L 3.3228818965225324,0.29290489476100356 L 3.247204418453818,0.16664465047059673 L 3.1595156800441053,0.04841007375453177 L 3.0606601717798214,-0.060660171779821415 L 2.951589926245468,-0.15951568004410532 L 2.8333553495294037,-0.2472044184538178 L 2.707095105238997,-0.3228818965225324 L 2.574025148547635,-0.38581929876693 L 2.4354270158816935,-0.43541050359831335 L 2.2926354830241924,-0.47117792060484565 L 2.1470257104943413,-0.4927770900082953 L 2.0,-0.5 L 1.8529742895056591,-0.4927770900082953 L 1.7073645169758076,-0.47117792060484565 L 1.5645729841183067,-0.43541050359831335 L 1.5000000000000002,-0.4123059204384313 L 1.4354270158816935,-0.43541050359831335 z" /></g></svg>