<svg xmlns="http://www.w3.org/2000/svg" xmlns:xlink="http://www.w3.org/1999/xlink" width="100.0" height="100.0" viewBox="0.38701552636492553 -0.5252903940735058 2.2259689472701494 3.0505807881470117" preserveAspectRatio="xMinYMin meet"><g transform="matrix(1,0,0,-1,0,2.0)"><path fill-rule="evenodd" fill="#66cc99" stroke="#555555" stroke-width="0.06101161576294024" opacity="0.6" d="M 2.4927770900082953,0.8529742895056591 L 2.4711779206048456,0.7073645169758076 L 2.4354105035983133,0.5645729841183065 L 2.38581929876693,0.42597485145236536 L 2.3228818965225324,0.29290489476100356 L 2.247204418453818,0.16664465047059673 L 2.1595156800441053,0.04841007375453177 L 2.0606601717798214,-0.060660171779821415 L 1.9515899262454681,-0.15951568004410532 L 1.8333553495294035,-0.2472044184538178 L 1.7070951052389967,-0.3228818965225324 L 1.5740251485476349,-0.38581929876693 L 1.5000000000000002,-0.4123059204384313 L 1.4259748514523654,-0.38581929876693 L 1.2929048947610036,-0.32288189652253263 L 1.1666446504705972,-0.24720441845381802 L 1.0484100737545319,-0.15951568004410577 L 0.9393398282201788,-0.060660171779821415 L 0.8404843199558945,0.04841007375453177 L 0.752795581546182,0.16664465047059673 L 0.6771181034774676,0.29290489476100334 L 0.61418070123307,0.42597485145236513 L 0.5645894964016867,0.5645729841183065 L 0.5288220793951544,0.7073645169758072 L 0.5072229099917047,0.8529742895056588 L 0.5,0.9999999999999998 L 0.5072229099917047,1.1470257104943409 L 0.5288220793951544,1.2926354830241924 L 0.5645894964016867,1.435427015881693 L 0.6141807012330698,1.5740251485476344 L 0.6771181034774674,1.7070951052389964 L 0.7527955815461818,1.8333553495294028 L 0.8404843199558942,1.951589926245468 L 0.9393398282201786,2.060660171779821 L 1.048410073754531,2.159515680044105 L 1.1666446504705967,2.247204418453818 L 1.2929048947610031,2.3228818965225324 L 1.4259748514523645,2.38581929876693 L 1.4999999999999998,2.412305920438431 L 1.5740251485476349,2.38581929876693 L 1.7070951052389964,2.3228818965225324 L 1.8333553495294028,2.2472044184538182 L 1.9515899262454683,2.1595156800441053 L 2.060660171779821,2.0606601717798214 L 2.159515680044105,1.951589926245469 L 2.247204418453818,1.8333553495294033 L 2.3228818965225324,1.7070951052389969 L 2.38581929876693,1.5740251485476355 L 2.4354105035983133,1.4354270158816937 L 2.4711779206048456,1.292635483024193 L 2.4927770900082953,1.1470257104943409 L 2.5,1.0 L 2.4927770900082953,0.8529742895056591 z" /></g></svg>